<?xml version="1.0" encoding="utf-8"?>
<!-- Generator: Adobe Illustrator 16.0.0, SVG Export Plug-In . SVG Version: 6.00 Build 0)  -->
<!DOCTYPE svg PUBLIC "-//W3C//DTD SVG 1.1//EN" "http://www.w3.org/Graphics/SVG/1.1/DTD/svg11.dtd">
<svg version="1.1" id="Capa_1" xmlns="http://www.w3.org/2000/svg" xmlns:xlink="http://www.w3.org/1999/xlink" x="0px" y="0px"
	 width="983.235px" height="163.038px" viewBox="0 0 983.235 163.038" enable-background="new 0 0 983.235 163.038"
	 xml:space="preserve">
<path fill="#FFFFFF" d="M0,81.479v-0.44C0,37.027,34.282,0.976,81.168,0.976c23.444,0,38.924,5.31,52.856,15.039
	c3.32,2.432,7.079,7.078,7.079,13.711c0,9.29-7.52,16.812-16.81,16.812c-4.866,0-7.963-1.771-10.394-3.542
	c-9.288-6.632-19.24-10.615-33.839-10.615c-24.771,0-44.454,21.895-44.454,48.214v0.443c0,28.308,19.462,49.097,46.887,49.097
	c12.385,0,23.444-3.095,32.068-9.29V98.732H91.562c-8.183,0-14.818-6.416-14.818-14.599c0-8.182,6.636-14.817,14.818-14.817h38.928
	c9.508,0,17.029,7.52,17.029,17.027v37.598c0,9.955-3.762,16.81-11.945,21.675c-12.604,7.741-30.961,15.48-54.184,15.48
	C33.176,161.098,0,127.259,0,81.479z"/>
<path fill="#FFFFFF" d="M160.112,92.095V19.333c0-9.511,7.52-17.03,17.029-17.03c9.511,0,17.03,7.52,17.03,17.03v71.879
	c0,25.21,12.606,38.26,33.396,38.26c20.79,0,33.396-12.605,33.396-37.156V19.333c0-9.511,7.52-17.03,17.029-17.03
	s17.031,7.52,17.031,17.03V90.99c0,46.887-26.32,69.888-67.899,69.888C185.548,160.878,160.112,137.656,160.112,92.095z"/>
<path fill="#EE3670" d="M308.945,142.08c-3.76-2.655-6.415-7.521-6.415-12.829c0-8.847,7.079-15.703,15.926-15.703
	c4.423,0,7.519,1.55,9.731,3.097c11.722,8.626,24.549,13.934,39.59,13.934c13.931,0,22.335-5.528,22.335-14.599v-0.44
	c0-8.624-5.308-13.047-31.183-19.686c-31.187-7.959-51.312-16.586-51.312-47.327v-0.444c0-28.085,22.56-46.666,54.186-46.666
	c18.798,0,35.164,4.868,49.098,13.713c3.76,2.211,7.52,6.857,7.52,13.491c0,8.847-7.078,15.702-15.923,15.702
	c-3.316,0-5.972-0.884-8.626-2.433c-11.279-6.634-21.895-10.394-32.51-10.394c-13.049,0-19.906,5.971-19.906,13.491v0.443
	c0,10.173,6.636,13.49,33.395,20.347c31.408,8.184,49.099,19.462,49.099,46.442v0.444c0,30.743-23.441,47.992-56.836,47.992
	C346.765,160.656,326.198,154.464,308.945,142.08z"/>
<path fill="#EE3670" d="M468.62,35.036h-32.732c-8.626,0-15.702-7.078-15.702-15.702c0-8.626,7.076-15.702,15.702-15.702h99.522
	c8.627,0,15.703,7.076,15.703,15.702c0,8.624-7.076,15.702-15.703,15.702h-32.732v107.708c0,9.508-7.52,17.028-17.029,17.028
	c-9.509,0-17.028-7.521-17.028-17.028V35.036z"/>
<path fill="#EE3670" d="M721.83,20.661c0-9.51,7.52-17.029,17.029-17.029h53.745c19.68,0,34.942,5.527,45.116,15.702
	c8.624,8.624,13.271,20.789,13.271,35.387v0.441c0,24.327-12.166,39.366-30.964,47.108l23.666,28.749
	c3.315,4.205,5.529,7.742,5.529,13.05c0,9.512-7.965,15.704-16.148,15.704c-7.737,0-12.825-3.762-16.808-8.846l-33.173-42.022
	H755.89v33.84c0,9.508-7.52,17.028-17.03,17.028c-9.51,0-17.029-7.521-17.029-17.028V20.661z M790.391,78.825
	c16.589,0,26.1-8.846,26.1-21.895v-0.441c0-14.598-10.175-22.117-26.764-22.117H755.89v44.452H790.391z"/>
<path fill="#EE3670" d="M864.03,141.416V20.661c0-9.51,7.519-17.029,17.029-17.029h85.81c8.405,0,15.261,6.855,15.261,15.259
	c0,8.403-6.855,15.041-15.261,15.041h-69.002v31.404h59.05c8.406,0,15.262,6.857,15.262,15.26c0,8.403-6.855,15.037-15.262,15.037
	h-59.05v32.513h70.106c8.406,0,15.262,6.855,15.262,15.262c0,8.401-6.855,15.038-15.262,15.038H881.06
	C871.549,158.445,864.03,150.927,864.03,141.416z"/>
<circle fill="#EE3670" cx="627.166" cy="81.521" r="81.52"/>
<path fill="#FFFFFF" d="M686.745,40.464l-42.558-12.771c-3.719,7.248-8.187,10.698-16.957,10.698
	c-8.65-0.146-13.438-3.516-17.089-10.698l-42.551,12.771l8.51,23.403l17.021-2.127l-4.252,76.598h76.594l-4.253-76.598l17.02,2.127
	L686.745,40.464z"/>
<g>
	<g>
		<path fill="#EE3670" d="M619.536,56.708c-0.264-2.544,1.141-4.474,3.51-4.474h8.596c2.368,0,3.772,1.93,3.509,4.474l-3.772,32.984
			c-0.263,2.368-1.842,3.858-4.035,3.858c-2.192,0-3.771-1.49-4.035-3.858L619.536,56.708z M627.343,99.341
			c4.387,0,7.632,3.246,7.632,7.456v0.174c0,4.211-3.245,7.456-7.632,7.456c-4.385,0-7.632-3.245-7.632-7.456v-0.174
			C619.711,102.587,622.958,99.341,627.343,99.341z"/>
	</g>
</g>
</svg>
